<svg width="28" height="28" viewBox="0 0 28 28" fill="none" xmlns="http://www.w3.org/2000/svg">
<path d="M22.96 2.23999H5.03999C3.49439 2.23999 2.23999 3.49439 2.23999 5.03999V22.96C2.23999 24.5056 3.49439 25.76 5.03999 25.76H22.96C24.5056 25.76 25.76 24.5056 25.76 22.96V5.03999C25.76 3.49439 24.5056 2.23999 22.96 2.23999ZM9.51999 11.2V21.84H6.15999V11.2H9.51999ZM6.15999 8.10319C6.15999 7.31919 6.83199 6.71999 7.83999 6.71999C8.84799 6.71999 9.48079 7.31919 9.51999 8.10319C9.51999 8.88719 8.89279 9.51999 7.83999 9.51999C6.83199 9.51999 6.15999 8.88719 6.15999 8.10319ZM21.84 21.84H18.48C18.48 21.84 18.48 16.6544 18.48 16.24C18.48 15.12 17.92 14 16.52 13.9776H16.4752C15.12 13.9776 14.56 15.1312 14.56 16.24C14.56 16.7496 14.56 21.84 14.56 21.84H11.2V11.2H14.56V12.6336C14.56 12.6336 15.6408 11.2 17.8136 11.2C20.0368 11.2 21.84 12.7288 21.84 15.8256V21.84Z" fill="white"/>
</svg>
